<svg id="Layer_1" data-name="Layer 1" xmlns="http://www.w3.org/2000/svg" xmlns:xlink="http://www.w3.org/1999/xlink" viewBox="0 0 1366 768"><defs><style>.cls-1{fill:url(#linear-gradient);}.cls-2{fill:url(#linear-gradient-2);}</style><linearGradient id="linear-gradient" x1="390.84" y1="383.96" x2="1366.25" y2="383.96" gradientUnits="userSpaceOnUse"><stop offset="0" stop-color="#0074af"/><stop offset="1" stop-color="#1dffe4"/></linearGradient><linearGradient id="linear-gradient-2" x1="998.07" y1="-373.12" x2="1261.83" y2="890.35" xlink:href="#linear-gradient"/></defs><title>asset1</title><path class="cls-1" d="M401.55-.09s-70,149.27,148,82.92,184.25,25.22,154.84,71.34c-31.87,50-74.39,80.44-70.6,129.89,5,64.89,105.13,67.24,189.11,108.49,202.77,99.61-26.3,16.65-103.56,64.28S689.21,540,796.1,536.32c230.82-7.87,154.26,66.27,115.7,99.85s-31.92,110.32,149.75,58.44S1174.92,768,1174.92,768h191.33V-.09Z"/><path class="cls-2" d="M1151.93-.09S890.9-13,844.43,149.85C793.8,327.3,955.75,410.73,1010.69,370s57.43-96.09-28.09-132.63-76.92-149.13,110.07-121,208.61,254,73.14,308-102.46,117.68,43.26,185.31,66,158.31,66,158.31h91.15V-.09Z"/></svg>