<svg xmlns="http://www.w3.org/2000/svg" xmlns:xlink="http://www.w3.org/1999/xlink" viewBox="0 0 526.16 355.57"><defs><style>.cls-1{fill:#bbd070;}.cls-2{fill:#97a43c;}.cls-3{fill:#48753a;}.cls-4{fill:#ebebeb;}.cls-5{fill:#004e8c;}.cls-6{fill:#ffce55;}.cls-7{fill:#ffd179;}.cls-8{fill:#ffdc7d;}.cls-9{fill:#ffdf69;}.cls-10{fill:#f0f0f0;}.cls-11{fill:#deba35;}.cls-12{fill:#4ba2f4;}.cls-13{fill:#375eab;}.cls-14{fill:#c9c9c9;}.cls-15{fill:#ffd887;}.cls-16{fill:#ffd989;}.cls-17{fill:#fff;}.cls-18{fill:url(#linear-gradient);}.cls-19{fill:#eea886;}.cls-20{fill:#202338;}.cls-21{fill:#81807e;}.cls-22{fill:#292c47;}.cls-23{fill:#dbd8e3;}.cls-24{fill:#1d2033;}.cls-25{fill:#323657;}.cls-26{fill:#eea987;}.cls-27{fill:#d44040;}.cls-28{fill:#c4c1cc;}.cls-29{fill:#3a4066;}.cls-30{fill:#a77860;}.cls-31{fill:#666fb3;}.cls-32{fill:#2d314f;}.cls-33{fill:#b8b8b8;}.cls-34{fill:#d88a51;}.cls-35{fill:#c26c23;}.cls-36{fill:url(#linear-gradient-2);}.cls-37{fill:#e3f2ff;}.cls-38{fill:#ffb255;}.cls-39{fill:#ffb555;}.cls-40{fill:#ffb455;}.cls-41{fill:#0e2d3d;}.cls-42{fill:#ffcb55;}.cls-43{fill:#163342;}.cls-44{fill:#1d3b54;}.cls-45{fill:#285173;}.cls-46{fill:#ffbf55;}.cls-47{fill:#183c59;}.cls-48{fill:#616161;}.cls-49{fill:#e0cec7;}.cls-50{fill:#e2d2ca;}.cls-51{fill:#706865;}.cls-52{fill:#ccbdb7;}.cls-53{fill:#b59074;}.cls-54{fill:#ead8cf;}.cls-55{fill:#da9b5b;}.cls-56{fill:#424773;}.cls-57{fill:#3a3f47;}.cls-58{fill:#918783;}.cls-59{fill:#5e5854;}.cls-60{fill:#bfb2ac;}.cls-61{fill:#f2e2d9;}.cls-62{fill:#f5f7ff;}.cls-63{fill:#918681;}.cls-64{fill:#dfe1e8;}.cls-65{fill:#ab9546;}</style><linearGradient id="linear-gradient" x1="182.77" y1="85.55" x2="272.39" y2="85.55" gradientUnits="userSpaceOnUse"><stop offset="0" stop-color="#ff9f55"/><stop offset="1" stop-color="#ffd255"/></linearGradient><linearGradient id="linear-gradient-2" x1="150.44" y1="306.67" x2="78.65" y2="234.88" xlink:href="#linear-gradient"/></defs><title>Asset2</title><g id="Layer_2" data-name="Layer 2"><g id="Layer_1-2" data-name="Layer 1"><path class="cls-1" d="M10.07,107.05s33.51-14.4,46.46,5.12-5.19,18.3-5.19,18.3-1,9-18.13-12.33C25.14,108.07,10.07,107.05,10.07,107.05Z"/><path class="cls-2" d="M4.22,51.41S34,42.18,53.56,79.91s37.2,40.72,37.2,40.72S23.47,132.7,4.22,51.41Z"/><path class="cls-3" d="M78.38,122.81c-2.6,12.54-31.32-11.65-34.14-33.34S47,51.86,41.33,37.94C41.33,37.94,91.21,61,78.38,122.81Z"/><path class="cls-4" d="M86.15,60a11.52,11.52,0,0,0-3.36.49,9.59,9.59,0,0,0-18,1.15,7,7,0,0,0-2.48-.45,6.54,6.54,0,0,0-6.7,6.37H95.59C95.59,63.35,91.37,60,86.15,60Z"/><path class="cls-4" d="M27,85.12a8.85,8.85,0,0,0-2.56.38,7.22,7.22,0,0,0-6.71-4.35,7.13,7.13,0,0,0-7,5.23A5.37,5.37,0,0,0,8.82,86a5,5,0,0,0-5.11,4.85H34.16C34.16,87.71,30.94,85.12,27,85.12Z"/><rect class="cls-5" x="31.89" y="85.52" width="394.28" height="234.02" rx="83.79"/><path class="cls-6" d="M114.9,18.44a20.19,20.19,0,0,0-2.16-5.2l2.2-3.3-3-3-3-3L105.54,6a20.39,20.39,0,0,0-5.2-2.16L99.56,0H90.94l-.78,3.88A20.39,20.39,0,0,0,85,6l-3.3-2.19-3,3-3,3.05,2.2,3.3a20.19,20.19,0,0,0-2.16,5.2l-3.88.78v8.62l3.88.78a20,20,0,0,0,2.16,5.2l-2.2,3.3,3,3.05,3,3L85,41a20,20,0,0,0,5.2,2.16l.78,3.88h8.62l.78-3.88a20,20,0,0,0,5.2-2.16l3.3,2.2,3-3,3-3.05-2.2-3.3a20,20,0,0,0,2.16-5.2l3.88-.78V19.22ZM95.25,38.63a15.1,15.1,0,1,1,15.1-15.1A15.1,15.1,0,0,1,95.25,38.63Z"/><path class="cls-6" d="M123.7,53a8.93,8.93,0,0,0-1-2.38l1-1.52-1.4-1.39-1.39-1.4-1.52,1a8.93,8.93,0,0,0-2.38-1l-.36-1.78h-4l-.36,1.78a8.93,8.93,0,0,0-2.38,1l-1.52-1-1.39,1.4-1.4,1.39,1,1.52a8.93,8.93,0,0,0-1,2.38l-1.78.36v3.95l1.78.36a8.93,8.93,0,0,0,1,2.38l-1,1.52,1.4,1.39,1.39,1.4,1.52-1a8.93,8.93,0,0,0,2.38,1l.36,1.78h4l.36-1.78a8.93,8.93,0,0,0,2.38-1l1.52,1,1.39-1.4,1.4-1.39-1-1.52a8.93,8.93,0,0,0,1-2.38l1.78-.36V53.38Zm-9,9.26a6.93,6.93,0,1,1,6.92-6.92A6.92,6.92,0,0,1,114.7,62.28Z"/><path class="cls-7" d="M16.76,165.22l-5.69-5a1.11,1.11,0,0,1-.11-1.58,1.13,1.13,0,0,1,1.58-.11l4,3.51,5.74-6.4a1.12,1.12,0,0,1,1.67,1.5Z"/><polygon class="cls-8" points="276.57 70.95 283.93 70.95 281.68 66.28 274.31 66.28 276.57 70.95"/><polygon class="cls-8" points="273.12 70.95 274.88 70.95 272.62 66.28 270.87 66.28 273.12 70.95"/><polygon class="cls-8" points="247.68 65.38 277.5 65.38 276.51 63.05 246.69 63.05 247.68 65.38"/><polygon class="cls-7" points="7.43 124.92 17.03 124.92 14.09 118.82 4.49 118.82 7.43 124.92"/><polygon class="cls-7" points="2.94 124.92 5.22 124.92 2.29 118.82 0 118.82 2.94 124.92"/><rect class="cls-9" x="46.25" y="154.4" width="48.65" height="48.65"/><rect class="cls-10" x="46.25" y="102.02" width="48.65" height="48.65"/><rect class="cls-10" x="98.6" y="102.02" width="48.65" height="48.65"/><rect class="cls-10" x="180.88" y="154.17" width="48.65" height="48.65"/><rect class="cls-9" x="233.23" y="154.17" width="48.65" height="48.65"/><rect class="cls-10" x="98.6" y="206.51" width="48.65" height="48.65"/><rect class="cls-9" x="98.6" y="258.86" width="48.65" height="48.65"/><rect class="cls-10" x="180.88" y="258.86" width="48.65" height="48.65"/><rect class="cls-10" x="46.25" y="206.63" width="48.65" height="48.65"/><path class="cls-9" d="M281.87,258.86s0,22.52-5.31,41.61l-11.25,7H225.64c7.54-20.06,7.58-48.65,7.58-48.65Z"/><polygon class="cls-11" points="265.31 307.51 265.31 300.31 276.56 300.31 265.31 307.51"/><path class="cls-12" d="M229.53,206.51s0,22.52-5.32,41.61l-11.25,7H173.29c7.54-20,7.59-48.65,7.59-48.65Z"/><polygon class="cls-13" points="212.96 255.16 212.96 247.96 224.21 247.96 212.96 255.16"/><rect class="cls-10" x="233.23" y="102.05" width="48.65" height="48.65"/><path class="cls-9" d="M229.53,102.05s0,22.52-5.32,41.61l-11.25,7H173.29c7.54-20.06,7.59-48.65,7.59-48.65Z"/><polygon class="cls-11" points="212.96 150.7 212.96 143.5 224.21 143.5 212.96 150.7"/><path class="cls-10" d="M94.9,258.86s0,22.52-5.31,41.61l-11.25,7H38.67c7.54-20.06,7.58-48.65,7.58-48.65Z"/><polygon class="cls-14" points="78.34 307.51 78.34 300.31 89.59 300.31 78.34 307.51"/><rect class="cls-9" x="312.46" y="154.4" width="48.65" height="48.65"/><rect class="cls-10" x="312.46" y="102.02" width="48.65" height="48.65"/><rect class="cls-10" x="364.8" y="102.02" width="48.65" height="48.65"/><rect class="cls-10" x="364.8" y="206.51" width="48.65" height="48.65"/><rect class="cls-9" x="364.8" y="258.86" width="48.65" height="48.65"/><rect class="cls-10" x="312.46" y="206.63" width="48.65" height="48.65"/><path class="cls-10" d="M361.1,258.86s0,22.52-5.31,41.61l-11.25,7H304.87c7.54-20.06,7.58-48.65,7.58-48.65Z"/><polygon class="cls-14" points="344.54 307.51 344.54 300.31 355.79 300.31 344.54 307.51"/><path class="cls-10" d="M281.87,206.51s0,22.52-5.31,41.61l-11.25,7H225.64c7.54-20,7.58-48.65,7.58-48.65Z"/><polygon class="cls-14" points="265.31 255.16 265.31 247.96 276.56 247.96 265.31 255.16"/><rect class="cls-15" x="439.73" y="191.06" width="34.28" height="2.4" transform="translate(913.74 384.52) rotate(180)"/><rect class="cls-15" x="439.73" y="195.59" width="34.28" height="10.1" transform="translate(913.74 401.27) rotate(180)"/><rect class="cls-8" x="171.63" y="69.64" width="11.87" height="0.89" transform="translate(355.13 140.18) rotate(180)"/><rect class="cls-8" x="171.63" y="70.92" width="11.87" height="2.4" transform="translate(355.13 144.24) rotate(180)"/><rect class="cls-16" x="479.64" y="178.1" width="1.51" height="28.31" transform="translate(960.79 384.52) rotate(180)"/><rect class="cls-17" x="161.35" y="83.31" width="3.06" height="251.42"/><rect class="cls-17" x="295.64" y="75.55" width="3.06" height="251.42"/><rect class="cls-18" x="182.77" y="80.79" width="89.62" height="9.51"/><path class="cls-8" d="M207.57,48.12l-7.68-3.33a1.24,1.24,0,0,1-.64-1.64,1.23,1.23,0,0,1,1.63-.64l5.43,2.35,3.92-8.68a1.24,1.24,0,1,1,2.26,1Z"/><path class="cls-8" d="M216.29,55.45a15.69,15.69,0,1,1,3.82-21.86A15.7,15.7,0,0,1,216.29,55.45ZM199.54,31.61a13.44,13.44,0,1,0,18.74,3.27A13.47,13.47,0,0,0,199.54,31.61Z"/><path class="cls-19" d="M352.79,239.23s-1.52-.6-1.62-1.56a5.89,5.89,0,0,0-1-2.13c-.28-.41-.69-2-1.17-1.66s.56,2.64.69,3.17-1.94-.6-2.45-.49-1.93,3.72-.43,4.32,3.42.22,3.66.38a10.07,10.07,0,0,0,1.08.48Z"/><path class="cls-20" d="M392.13,336.05a20.4,20.4,0,0,0,1.74,2.72c.68.77,3.32,2.15,3.33,4.45,0,2.48-4.44,1.79-6.18,1.7s-1.87-1.42-2.61-2.83-1.47-1.17-1.61-2.3a13.23,13.23,0,0,1,.71-3.74Z"/><path class="cls-20" d="M365.6,335.82s-2.15,2.38-4.33,2.88-3.7,1.13-3.72,2.49,6.28,2.26,8.77.89c3.72-2.05,4.1-1.43,4.52-2.46s-.5-3.77-.47-4.09S365.6,335.82,365.6,335.82Z"/><path class="cls-21" d="M365.84,334.68a10.46,10.46,0,0,0-.24,1.14s4.91.6,4.77-.29c-.12-.73-.29-1.51-.29-1.51Z"/><path class="cls-21" d="M387.57,335.3a9.36,9.36,0,0,0-.16,1.08s4.94.9,4.91,0a4.15,4.15,0,0,0-.45-1.52Z"/><path class="cls-22" d="M370.27,268.06s-1.77,17-2.69,22.88c-1.08,6.82-1.44,12.46-1.74,16-.38,4.44-.45,26.29-.72,27.59s5.87.36,5.87.36,3-28.55,4.14-33.28c1.05-4.41,4.93-23.37,5.89-22.17s2.14,22.13,2.85,25.61,2.86,30.67,2.86,30.67,4.88,1,6.18-.13c0,0,.59-23.44.14-29.95-.17-2.48,2.93-29.76-1.05-40.74C389.89,259.09,370.27,268.06,370.27,268.06Z"/><path class="cls-23" d="M403.07,249.39c1,2.81-8.41,9.85-7.24,10.07S397,261.9,397,261.9s8.89-7.74,8.71-10c-.1-1.26-7.06-19.68-8.12-20.44a78.39,78.39,0,0,0-7.64-3.24,17.24,17.24,0,0,0-2.1-.71c-.54,0-7.2.6-7.2.6s-1,.33-1.93.77c-1.66.77-4.26,2-6.12,2.85-.61.29-1.36.68-2,1,.07,2.26.21,4.69.4,7.28,0,0,.34,5.67.38,11.39a25.91,25.91,0,0,1,.24,4.31c.09,2.85-.23,5.78-.31,7.42-.14,2.58-.49,6.24-.49,6.24l3.24,1.33,14.18-.14,4.45-1.19s-.27-11.4-.2-14.72.73-11.49.86-12C393.32,242.66,398.08,235.75,403.07,249.39Z"/><path class="cls-24" d="M371.22,268.14a117.92,117.92,0,0,0,18.28,0v2.8s-12.71,1.22-18.71-.53Z"/><path class="cls-25" d="M370.41,232.66c.08,2.31.19,4.77.38,7.42,0,0,.19,6.45.56,12.57a12.65,12.65,0,0,1,.12,2.69c-.09,1.2-.22,2.5-.38,3.87v.05c0,.32-.07.65-.11,1h0a143.72,143.72,0,0,1-3,17c-.15.49.38.95.76,1.3l2.67,1.68s1.1-10.11,1.46-13.54,1.46-7.76,1.95-12.09h0c.61-5.5,1.46-10.88,1.91-14.08,1.19-8.32,2.78-12,2.78-12C378.77,228.71,370.41,232.66,370.41,232.66Z"/><path class="cls-25" d="M402.14,248.66c1.16,2.53-7.32,10.27-7.22,10.53a23.94,23.94,0,0,0,2.78,4.32s13.13-14.11,13-15.85c-.13-1.26-11.14-15.32-12.2-16.08-.61-.44-5.16-2.06-7.39-2.94l-2.11-.8c-.47.53-3.8,4.11-4.95,17.72-.19,2.29.42,7.14.83,11.11.44,4.23.92,7.53,1.28,11.06.69,7,1.18,12.51,1.18,12.51l6.94-3.08c1.12-.56,3.06-2,2.64-3.21-1.61-4.49-4-13-4-16.94,0,0,1.83-13.16,2.44-15.28C395.31,241.73,400.85,245.82,402.14,248.66Z"/><path class="cls-26" d="M387.19,228.18a45.64,45.64,0,0,1,.93-6.91c.23-1.24-7.19,3.26-7.19,3.26s0,.43,0,1c0,.31,0,.66,0,1,0,.13,0,.25,0,.37,0,.33,0,.64-.05.91a4.24,4.24,0,0,1-.25.89C380.37,229.44,384.69,230,387.19,228.18Z"/><path class="cls-27" d="M382.56,230.58l-1.24,1.65a1.5,1.5,0,0,0,2,.25Z"/><path class="cls-27" d="M381.65,232.3s-4.66,18-3.7,31.95l1.57,2.77,1.47-2.9s.4-25,1.68-31.87Z"/><path class="cls-26" d="M381.24,229l1.32,1.54s2.11-.41,2.73-1.52S381.24,229,381.24,229Z"/><path class="cls-28" d="M380.94,227.69a6.34,6.34,0,0,0,1.62,2.89L381,232.73l-.86-4.46Z"/><path class="cls-28" d="M387.31,226.57s-2.62,3.16-4.75,4l1,2.46,5-5.35Z"/><path class="cls-25" d="M348.86,241.8s11.28,12.25,13.94,11.6c1.23-.31,3.09-2.43,4.63-4.43.51-.65,1-1.34,1.48-2h0c1.89-2.73,3.37-5.34,3.37-5.34s5.59-6.55,1.1-9.47a5,5,0,0,0-3,.61c-1,.73-3.4,5.33-3.8,6.19s-3.43,6.87-3.72,7-3.28-1.62-4.88-2.69a59.14,59.14,0,0,1-5.83-4.78Z"/><rect class="cls-29" x="378.4" y="268.29" width="4.56" height="3.46" transform="translate(761.36 540.04) rotate(180)"/><path class="cls-30" d="M381,226.56c0,.13,0,.25,0,.37,4.25-1.42,5.07-3.57,5.07-3.57a28.63,28.63,0,0,1-5.07,2.19C381,225.86,381,226.21,381,226.56Z"/><path class="cls-19" d="M396.45,259.15a1.52,1.52,0,0,1-.83.33c-.73,0-1.57-.8-2.34-.08s.85,3.81,1.43,4.17,1.91-.28,3.33-2S396.45,259.15,396.45,259.15Z"/><path class="cls-19" d="M393.57,259.19a33.16,33.16,0,0,0-3.07,1.29c-1.39.68-3,1.71-2.85,2.06.25.54,1.49-.46,2.91-1s1.15-.21,1.15-.21,0-.09-1.28.77-2.89,2-2.76,2.27.21.39.78.14c-.29.22-.28.33-.2.46.41.69,2.7-.34,3.61-.75-.7.32-1.18.63-.65.89s3.76-1.31,5-1.78S393.57,259.19,393.57,259.19Z"/><path class="cls-25" d="M394.92,259.19s.32,1.9,2.78,4.32c0,0,5.64-6.23,6.65-7.39l-4.42-2.56Z"/><path class="cls-19" d="M379.14,212.7s-2.29,2.56-1.61,3.2-1.55,3.08-1.84,3.51,1,1.1,1.2,1.47.18,4.31,1.27,4.69,6.57-.17,8.28-1.27,4.39-7.29,4.13-10.24S383.16,208.23,379.14,212.7Z"/><path class="cls-25" d="M378.67,213.26a4.65,4.65,0,0,1,2.64-5.22c3.5-1.65,7.94,3.78,8.51,4.08s4,1.37.78,7c-2.75,4.87-3,5-3,5s-.4-3.3-.93-3.91c-.82-1-3-1.3-3-1.3s1.7-2.51.17-3.29S380.45,213,378.67,213.26Z"/><path class="cls-19" d="M385.73,217.82c.23-.34,1.08-1.86,2.25-.57s-1.83,3.81-2.08,3.79S383.77,220.71,385.73,217.82Z"/><path class="cls-31" d="M342.29,252s-.68,2.67-.77,3.08-4.29-.71-4.29-.71V251S341.8,251.5,342.29,252Z"/><path class="cls-32" d="M341.6,254.69a11.81,11.81,0,0,0,2.41,2.64c1.23.85,6,2,6.68,2.78.5.6,1.19,2.85-6.43,1.82-5.42-.73-8.09-.55-8.58-1.49s1.55-6.41,1.55-6.41S338.39,254.66,341.6,254.69Z"/><rect class="cls-33" x="256.92" y="263.29" width="183.3" height="1.93" transform="translate(51.81 585.6) rotate(-84.44)"/><rect class="cls-33" x="225.89" y="260.28" width="183.3" height="1.93" transform="translate(26.79 552) rotate(-84.44)"/><rect class="cls-33" x="340.62" y="159.51" width="1.93" height="31.17" transform="translate(134.33 498.18) rotate(-84.46)"/><rect class="cls-33" x="339.22" y="173.94" width="1.93" height="31.17" transform="translate(118.68 509.8) rotate(-84.46)"/><rect class="cls-33" x="337.82" y="188.36" width="1.93" height="31.17" transform="translate(103.08 521.46) rotate(-84.46)"/><rect class="cls-33" x="336.42" y="202.79" width="1.93" height="31.17" transform="translate(87.46 533.1) rotate(-84.46)"/><rect class="cls-33" x="335.02" y="217.22" width="1.93" height="31.17" transform="translate(71.8 544.71) rotate(-84.46)"/><rect class="cls-33" x="333.62" y="231.64" width="1.93" height="31.17" transform="translate(56.21 556.38) rotate(-84.46)"/><rect class="cls-33" x="332.22" y="246.07" width="1.93" height="31.17" transform="translate(40.56 567.99) rotate(-84.46)"/><rect class="cls-33" x="330.82" y="260.49" width="1.93" height="31.17" transform="translate(24.94 579.63) rotate(-84.46)"/><rect class="cls-33" x="329.42" y="274.92" width="1.93" height="31.17" transform="translate(9.32 591.27) rotate(-84.46)"/><rect class="cls-33" x="328.02" y="289.35" width="1.93" height="31.17" transform="translate(-6.31 602.91) rotate(-84.46)"/><rect class="cls-33" x="326.62" y="303.77" width="1.93" height="31.17" transform="translate(-21.93 614.55) rotate(-84.46)"/><rect class="cls-33" x="325.22" y="318.2" width="1.93" height="31.17" transform="translate(-37.53 626.22) rotate(-84.46)"/><rect class="cls-33" x="323.82" y="332.62" width="1.93" height="31.17" transform="translate(-53.18 637.82) rotate(-84.46)"/><path class="cls-19" d="M383.34,147.64a2.78,2.78,0,0,1-.67.62s-.52.2-.89.36l-.27.14a5.37,5.37,0,0,1-1.49.79c-.72.2-4,.94-4,.94l-.75-1.92-.55-1.56s3-3.89,3.65-4.16l.19-.07a7.21,7.21,0,0,1,1.38-.12c.11,0,1.26-.15,1.5.09a1.11,1.11,0,0,1,.39,1,2.65,2.65,0,0,1,.69,1.31,1.64,1.64,0,0,1,.45,1.4S383.57,147.17,383.34,147.64Z"/><path class="cls-12" d="M348.58,172.88a43.37,43.37,0,0,1,5.07-2.82c6.25-3.12,14-8.79,15.43-9.61,2.25-1.26,9.38-10,9.38-10-.37-1.31-3.75-3.94-3.75-3.94s-10.8,10.23-13.16,11.49c-2,1.08-12.05,2.17-14.81,2.46l-.71.07C343.15,164.5,347,173.91,348.58,172.88Z"/><path class="cls-32" d="M347.47,195.55s3.06,11.35,3.87,15.41c.7,3.53,2.11,12.94,2.31,15.18s-9,23.9-10,27.82l-8.4-1.35s8.86-22.55,6.55-27.56c-3.44-7.45-3.89-7.23-6.6-13.36s-8.91-6.29-10.57-17.68C324.65,194,345.22,191.94,347.47,195.55Z"/><path class="cls-19" d="M332.53,140.42s5.58-2.09,8.16,2.16,2.32,12.75-.49,13.8-7,.49-8.48-2.16-2.74-6.5-2.67-9.07S331.07,141.16,332.53,140.42Z"/><path class="cls-19" d="M339.26,156.11a4.76,4.76,0,0,0,.15,2.19c.37.72-7,.74-7,.74a48.47,48.47,0,0,0-1.74-7.23C329.52,148.5,339.26,156.11,339.26,156.11Z"/><path class="cls-34" d="M330.65,151.81s.51.84,2.6.51,4.62-3.09,5.49-3.4.87-.81.87-.81l.55.79.92.06s-.84-2.48.43-3.49-1.32-8-8-5.68c0,0-5.13,1.41-4.95,4.33S329.51,150.35,330.65,151.81Z"/><path class="cls-19" d="M339.48,147.05c-.12-.49-1.36-1.89-1.84-.39s.72,3.51,1.39,3.33S339.77,148.29,339.48,147.05Z"/><path class="cls-12" d="M318.2,177.44a3.27,3.27,0,0,0,1.47,1.92,2.4,2.4,0,0,0,1.27.42h.33l5.8.2s4.31-13.93-3.78-19.25C323,160.77,317.64,170.73,318.2,177.44Z"/><path class="cls-32" d="M335.68,260.44c.49.94,3.16.76,8.58,1.49a24.94,24.94,0,0,0,3.56.26l.32-3.26a25,25,0,0,1-4.13-1.6,11.81,11.81,0,0,1-2.41-2.64c-3.21,0-4.37-.66-4.37-.66S335.2,259.5,335.68,260.44Z"/><path class="cls-12" d="M339.27,157.87s-4.55-1.06-7.12-.19l-.38.36s-.78,1.49,2.15,1.62S341.46,160,339.27,157.87Z"/><path class="cls-31" d="M321.49,264.47l-.78,3.08c-.09.41-4.29-.7-4.29-.7v-3.28S321,264,321.49,264.47Z"/><path class="cls-32" d="M324.65,194a89.25,89.25,0,0,0-2,12.64c-.42,5.85-1.18,12.26-1.78,18.37-.68,6.81-2.61,17.83-2.71,21.47S315,266.06,315,266.06l7.85.91s5.1-28.15,6.3-31,7.18-23.39,7.38-25.69S324.65,194,324.65,194Z"/><path class="cls-32" d="M320.8,267.21a11.44,11.44,0,0,0,2.4,2.64c1.24.86,6,2,6.68,2.79.5.59,1.2,2.84-6.43,1.82-5.41-.73-8.09-.55-8.57-1.49s1.54-6.42,1.54-6.42S317.58,267.18,320.8,267.21Z"/><path class="cls-12" d="M349.06,209.73c.67-.1-1.66-20-1.48-21.27.12-.83.1-7.31.05-11.35l.73-4.08a17.17,17.17,0,0,1,1.6-1c1-.59,2.28-1.25,3.69-2-.16-1-.28-1.72-.32-2.17a8.41,8.41,0,0,0-5.07-6.76l-1.52-.63c-3.29-1.36-7.47-2.63-7.47-2.63h-6.72a56.71,56.71,0,0,0-8.16,2.27,5.87,5.87,0,0,0-1.1.6l.91,19.15h0v0c.41,2.7.84,5.88,1,8.1.06.91-1,5.8-1.53,10.28L321.77,209S322.87,213.47,349.06,209.73Z"/><rect class="cls-6" x="390.85" y="14.78" width="0.4" height="41.7"/><rect class="cls-6" x="419.11" y="14.78" width="0.4" height="41.7"/><rect class="cls-6" x="447.37" y="14.78" width="0.4" height="41.7"/><rect class="cls-6" x="475.63" y="14.78" width="0.4" height="41.7"/><rect class="cls-6" x="503.89" y="14.78" width="0.4" height="41.7"/><rect class="cls-6" x="391.05" y="58.95" width="4.5" height="1.45"/><rect class="cls-6" x="391.05" y="9.65" width="6.77" height="1.09"/><rect class="cls-6" x="391.05" y="11.66" width="9.6" height="1.09"/><rect class="cls-6" x="419" y="9.65" width="7.95" height="1.09"/><rect class="cls-6" x="419" y="11.66" width="5.08" height="1.09"/><rect class="cls-6" x="447.76" y="9.65" width="4.92" height="1.09"/><rect class="cls-6" x="447.76" y="11.66" width="5.74" height="1.09"/><rect class="cls-6" x="476.02" y="9.65" width="7.17" height="1.09"/><rect class="cls-6" x="476.02" y="11.66" width="5.74" height="1.09"/><rect class="cls-6" x="504.09" y="9.65" width="4.28" height="1.09"/><rect class="cls-6" x="504.09" y="11.66" width="3.43" height="1.09"/><rect class="cls-6" x="419.31" y="58.95" width="4.5" height="1.45"/><rect class="cls-6" x="447.76" y="58.95" width="4.5" height="1.45"/><rect class="cls-6" x="476.02" y="58.95" width="4.5" height="1.45"/><rect class="cls-6" x="504.28" y="58.95" width="4.5" height="1.45"/><path class="cls-6" d="M494.29,44.09c-8.81,0-16.47-3.81-24.46-7.78-9.86-4.9-20.06-10-33.65-8.58-8.67.88-14.12,4.42-18.92,7.53-4.35,2.82-8.47,5.31-14,5.52-9,.34-12.12-3.5-12.17-3.73V34.58h0c0,.05,2,4.36,12.16,4.3,5,0,8.73-2.42,13-5.21,5-3.23,10.63-6.9,19.76-7.83,14.13-1.44,24.58,3.75,34.68,8.78,10.57,5.25,20.66,10.18,33.42,5.9v2A28.82,28.82,0,0,1,494.29,44.09Z"/><path class="cls-6" d="M441.38,43.62c-6.5,0-11.66-4.37-16.71-8.66-3.84-3.24-7.81-6.56-12.4-8.2-14-5-21.16,4.13-21.22,4.21V28.19c.07-.1,1.35-1.75,5.05-3.34,3.36-1.44,9-2.59,16.8.12,4.93,1.71,9,5.19,13,8.55,8,6.81,15,12.7,27,3.48,9.13-7,17.74-13.64,26.21-16.07,8.28-2.38,16.92-.64,25,7.45l-.06,2.52c-17.18-17.25-31.8-6.32-50,7.61C449.26,42.19,445.1,43.62,441.38,43.62Z"/><path class="cls-8" d="M325.47,66.76a4.68,4.68,0,0,1-2.8-.85,3.5,3.5,0,0,1-1.52-2.55A21.3,21.3,0,0,0,319.39,58a9.41,9.41,0,1,1,11.27-.67,20.55,20.55,0,0,0-.79,5.28c.17,2.07-1.65,3.91-4.05,4.11Zm-1-25.23a8.64,8.64,0,0,0-4.55,15.91l.1.06,0,.1a22,22,0,0,1,1.88,5.65v0a2.73,2.73,0,0,0,1.2,2,4,4,0,0,0,2.64.68,3.36,3.36,0,0,0,3.35-3.29h0v0A21.21,21.21,0,0,1,330,57l0-.12.09-.08a8.63,8.63,0,0,0-5.62-15.3Z"/><polygon class="cls-8" points="323.44 63.72 321.3 53.61 323.59 55.18 324.78 53.6 326.04 54.87 327.88 53.01 327.59 63.34 326.82 63.32 327.06 54.94 326.04 55.96 324.86 54.77 323.76 56.23 322.45 55.34 324.2 63.56 323.44 63.72"/><rect class="cls-8" x="322.51" y="65.8" width="6.68" height="2.69" transform="translate(-4.44 27.2) rotate(-4.75)"/><rect class="cls-8" x="321.28" y="63.06" width="8.82" height="4.33" transform="translate(-4.28 27.18) rotate(-4.75)"/><polygon class="cls-5" points="100.45 346.09 97.41 269.75 150 269.75 153.04 346.11 153.65 346.09 150.58 269.15 96.78 269.15 99.85 346.11 100.45 346.09"/><polygon class="cls-5" points="97.96 269.75 150.56 269.75 147.51 346.09 148.12 346.11 151.18 269.15 97.38 269.15 94.32 346.09 94.92 346.11 97.96 269.75"/><polygon class="cls-35" points="147.82 321.28 94.62 321.28 97.67 244.63 150.87 244.63 147.82 321.28"/><polygon class="cls-36" points="101.65 321.28 154.85 321.28 151.79 244.63 98.6 244.63 101.65 321.28"/><rect class="cls-37" x="143.61" y="291.61" width="2.67" height="20.35"/><rect class="cls-37" x="138.33" y="293.89" width="2.67" height="18.07"/><rect class="cls-37" x="132.59" y="296.86" width="2.67" height="15.1"/><rect class="cls-37" x="126.69" y="300.6" width="2.67" height="11.36"/><polygon class="cls-37" points="110.74 298.19 110.16 297.98 115.2 283.84 126.13 280.94 130.06 265.42 138.5 261.69 140.39 249.62 141 249.72 139.06 262.12 130.59 265.86 126.64 281.45 115.67 284.35 110.74 298.19"/><path class="cls-38" d="M127.66,280.16a1.64,1.64,0,1,1-2.31-.24A1.65,1.65,0,0,1,127.66,280.16Z"/><path class="cls-37" d="M127.62,282.7a1.95,1.95,0,1,1,.28-2.74A1.95,1.95,0,0,1,127.62,282.7Zm-2.08-2.54a1.34,1.34,0,1,0,1.88.19A1.33,1.33,0,0,0,125.54,280.16Z"/><path class="cls-39" d="M131.64,264.7a1.64,1.64,0,1,1-2.31-.24A1.63,1.63,0,0,1,131.64,264.7Z"/><path class="cls-37" d="M131.6,267.24a1.94,1.94,0,1,1,.28-2.74A1.95,1.95,0,0,1,131.6,267.24Zm-2.07-2.54a1.33,1.33,0,1,0,1.87.19A1.34,1.34,0,0,0,129.53,264.7Z"/><path class="cls-39" d="M140,260.87a1.64,1.64,0,1,1-2.31-.24A1.63,1.63,0,0,1,140,260.87Z"/><path class="cls-37" d="M139.91,263.41a1.95,1.95,0,1,1,.28-2.74A1.95,1.95,0,0,1,139.91,263.41Zm-2.08-2.54a1.34,1.34,0,1,0,1.88.19A1.34,1.34,0,0,0,137.83,260.87Z"/><path class="cls-40" d="M116.77,283.19a1.64,1.64,0,1,1-2.31-.23A1.64,1.64,0,0,1,116.77,283.19Z"/><path class="cls-37" d="M116.73,285.74a2,2,0,0,1-2.47-3,2,2,0,1,1,2.47,3Zm-2.08-2.54a1.33,1.33,0,1,0,1.88.19A1.33,1.33,0,0,0,114.65,283.2Z"/><rect class="cls-4" x="105.64" y="264.39" width="16.43" height="3.4" rx="1.62"/><rect class="cls-4" x="105.64" y="258.44" width="16.43" height="3.4" rx="1.62"/><path class="cls-41" d="M73.8,205.41s4.51,2.2,3.39,8.2-1.61,6.8-.36,9.15,2.72,12.34,1.6,14.23-13.89-8.32-15.66-16.9,1.12-12.39,2.14-13.81S69.82,203.39,73.8,205.41Z"/><polygon class="cls-42" points="96.4 198.09 81.98 198.09 81.98 208.54 81.98 210.75 84.18 208.54 96.4 208.54 96.4 198.09"/><path class="cls-43" d="M72.1,344.59h1v-4.81A13.63,13.63,0,0,1,76.38,343c1.26,1.85,3,1.69,5.62,1.57s2.51-1.18,2.28-2.67-2.91-2-3.77-2.2-2.83-3.62-3.46-4.44a11.36,11.36,0,0,1-1.32-2.2s-.49-2-2.92,0-1.73,5.85-1.46,6.21A42.6,42.6,0,0,1,72.1,344.59Z"/><path class="cls-19" d="M77.25,339.66c.9.59,3.26,0,3.26,0-.67-.87-4.78-6.64-4.78-6.64-2.49-1.45-3.48.55-3.48.55C73.27,333.88,76.34,339.07,77.25,339.66Z"/><path class="cls-19" d="M103.51,250.79s1.64.31,2.2-.46A5.43,5.43,0,0,1,107.6,249c.45-.2,1.58-1.35,1.85-.79s-1.78,2-2.15,2.36,2,.56,2.42.93-.1,4.29-1.71,4-3.15-1.7-3.44-1.7a8.9,8.9,0,0,1-1.19-.17Z"/><path class="cls-19" d="M109.36,251.36s4.89,1.26,5.14,1.62.17.62-.29.52l-4.76-1.08s5.54,2.46,5.81,2.71,0,.66-.22.63-5.88-2.16-5.88-2.16,5.16,2.31,5.33,2.58a.39.39,0,0,1-.49.54c-.4-.14-5.31-2-5.31-2s3.65,1.92,3.66,2.24-.09.64-1,.11-3.25-1.53-3.25-1.53Z"/><path class="cls-43" d="M58.86,344.92h.63v-3.53a7.67,7.67,0,0,1,1.63,2.84c.51,1.69,2.34,2.19,5.13,2.11s2.83-1.18,2.59-2.83S66.25,341,66.25,341a43.85,43.85,0,0,1-3.69-4.85,3.7,3.7,0,0,0-3,.62c-1.32,1.07-.91,3.49-.87,4.12S58.86,344.92,58.86,344.92Z"/><path class="cls-44" d="M60.79,260.69a24.69,24.69,0,0,0-4.23,9.45c-.9,5.13.54,22.34.5,24.87s-2.4,8.84-1.93,13.61,2.33,28.53,2.33,28.53l5.1-1s-.3-24.22,0-26.22.88-9.31,1-10.13S71,277.3,71,273.6,68.8,254.66,60.79,260.69Z"/><path class="cls-44" d="M77.48,262.38s5.47,20.84,6.11,23.73,1.59,5.27,1.59,6.5A42.84,42.84,0,0,1,84.12,300l-6.93,33.16h-6.6s3.68-19.89,3.77-23.78,3.11-9.44,2.52-11.09-9.49-20.68-9.49-20.68S60.65,256.33,77.48,262.38Z"/><path class="cls-19" d="M66.25,341l-3.69-4.85-3,.62a13.69,13.69,0,0,0,2.28,3.81C63.55,342.5,66.25,341,66.25,341Z"/><path class="cls-45" d="M75.23,227a6.8,6.8,0,0,1,4,2,26.37,26.37,0,0,1,3.75,5.7c.44,1,6.69,10,7,10.19s3.46,1.25,5.54,2c3.21,1.08,9.65,3.42,9.65,3.42l-1.28,4s-12.1-4-15.13-4.7c-3.7-.92-12.23-11.86-12.23-11.86S70.13,230.29,75.23,227Z"/><path class="cls-46" d="M71.3,225.39A31.85,31.85,0,0,0,75.23,227c1,.2,4.94,5.3,5.63,7.17s0,4.65-1.42,7.93-.08,4.38-.73,7.66-.44,15.55-.32,17.38-19,4.58-22.72,1.26c0,0,2.55-11.06,5.57-14.22.65-.68.58-5.23.14-6.36s-5.47-9.6-5.47-9.6-.37-8.59,1.82-10.29c1.91-1.48,7.09-2,8-2.33A15.59,15.59,0,0,1,71.3,225.39Z"/><path class="cls-19" d="M72.69,222s-.08.8-.18,1.89c0,.43-.09.9-.12,1.39a33.46,33.46,0,0,0-.16,3.81s-3,3-6.47-3.54a9.07,9.07,0,0,0,.35-6.41C65,215.46,72.69,222,72.69,222Z"/><path class="cls-47" d="M81.17,243.28s.73-4.85,0-7.8a18.84,18.84,0,0,1-1.39,6.14Z"/><path class="cls-19" d="M63.43,226s2.08,6.15,7.8,5.7,2.72-5.2,2.72-5.2a12.09,12.09,0,0,0-1.83-.89c-.4-.08-6.33-.16-6.33-.16Z"/><path class="cls-45" d="M74,226.54a56.34,56.34,0,0,1,3,16.74c0,8.46.24,22.22,1.28,26.57s4,17.79,4,17.79l2.33-1.21s-5.61-21.45-6-23,.32-17.89.72-19.26,2.11-7.46,1.85-9.15c-.34-2.13-2.33-5.29-5.55-8Z"/><path class="cls-45" d="M64.56,225.78a86.66,86.66,0,0,1,2.81,13.6c.94,7.64-2.9,43.11-5.48,51.16l-10-1.61S54.06,263.86,57,259.3s3.85-8.6.7-18.12,1.38-14.24,1.38-14.24S63.68,225.88,64.56,225.78Z"/><polygon class="cls-48" points="75.33 251.08 63.22 272.04 49.77 264.27 61.35 243 75.33 251.08"/><polygon class="cls-49" points="73.87 251.8 63.12 270.42 51.17 263.52 61.45 244.63 73.87 251.8"/><polygon class="cls-48" points="69.9 250.12 70.66 248.82 65.83 246.03 64.88 247.23 69.9 250.12"/><path class="cls-19" d="M69.33,265a2.74,2.74,0,0,1-.8-.11s-.42-.25-.73-.41l-.24-.11a4.39,4.39,0,0,1-1.35-.57,29.79,29.79,0,0,1-2.43-2.56l.89-1.36.66-1.4a30.81,30.81,0,0,1,4.52.55l.14.09a5.54,5.54,0,0,1,.85.86c.07.07.79.77.77,1.07a1,1,0,0,1-.48.82,2.34,2.34,0,0,1-.5,1.19,1.46,1.46,0,0,1-.7,1.08S69.77,264.89,69.33,265Z"/><path class="cls-45" d="M61.12,227s-3.67-1.06-5.78,3A18.73,18.73,0,0,0,53,237.72c-.26,1.87-1.46,7-1.58,7.49s-2.84,6.81-1.6,9,14,8.7,13.9,9.19,2.2-4.91,2.2-4.91-5.15-2.87-6-3.75c-1.37-1.44-4.26-3-3.66-4.76.69-2.1,2.79-9.15,3.27-10.18S64.22,228.28,61.12,227Z"/><path class="cls-26" d="M73.15,206.07s6.54,2.06,3,13.35-12.49-1.31-11.56-8.19S73.15,206.07,73.15,206.07Z"/><path class="cls-41" d="M76.81,212.66a14.81,14.81,0,0,1-8.7,3.59s-2.09,2.45-2.25,3.42c0,0-4.85-8.28,1.11-13.24S79,210.62,76.81,212.66Z"/><path class="cls-26" d="M68.18,216.48c0-.83-.55-2.7-1.77-2.17s.07,4.33.88,4.1C67.29,218.41,68.28,218.42,68.18,216.48Z"/><path class="cls-30" d="M72.51,223.91c0,.43-.09.9-.12,1.39,0,0-2.89-.17-4.82-4.47C67.69,221,69.81,224.13,72.51,223.91Z"/><rect class="cls-50" x="467.01" y="276.49" width="22.54" height="1.34" transform="translate(956.56 554.33) rotate(180)"/><rect class="cls-51" x="484.56" y="281.32" width="1.98" height="60.85"/><rect class="cls-52" x="454.87" y="276.12" width="15.67" height="1.91" transform="translate(925.41 554.14) rotate(180)"/><rect class="cls-52" x="459.74" y="259.81" width="5.93" height="18.02" transform="translate(925.41 537.64) rotate(180)"/><rect class="cls-53" x="410.83" y="277.86" width="86.81" height="3.46" transform="translate(908.47 559.17) rotate(180)"/><path class="cls-25" d="M514.3,256.91s1,13.32-1.65,14.91c-1.63,1-8.13,4.37-7.94,5s3.67,5.62,3.67,5.62,12.48-8.22,12.89-10.81-.62-19.5-2.33-20.28c-1.29-.59-2-.1-3.59,1.1C513.08,254.14,514.3,256.91,514.3,256.91Z"/><path class="cls-54" d="M491.55,260.71l-1.1-.4s1.37-3.22,2-3.14a15.79,15.79,0,0,1,1.55.31Z"/><path class="cls-55" d="M491.3,261.27c.14-.1,2.34-4.32,2.34-4.32l4.69.64-2.53,5Z"/><path class="cls-56" d="M498.94,333.86s.39,2.69.44,3.1,4.32-.24,4.32-.24l.34-3.21S499.48,333.48,498.94,333.86Z"/><path class="cls-22" d="M499.33,336.62a11.54,11.54,0,0,1-2.66,2.33c-1.31.7-3.36,1-4.13,1.72-.56.53-2,2.8,3.39,2.76s8.06.32,8.64-.56-.84-6.44-.84-6.44A11.42,11.42,0,0,1,499.33,336.62Z"/><path class="cls-56" d="M471.59,333.88s.39,2.7.44,3.1,4.31-.23,4.31-.23l.35-3.21S472.12,333.5,471.59,333.88Z"/><path class="cls-22" d="M472,336.64a11.54,11.54,0,0,1-2.66,2.33c-1.31.71-6.12,1.29-6.9,2-.55.53-1.48,2.66,6.16,2.46,5.43-.14,8.06.32,8.64-.55s-.84-6.44-.84-6.44A10.58,10.58,0,0,1,472,336.64Z"/><path class="cls-22" d="M512.71,287.32s-15.52,2.63-19,3.18-22.52,5.28-24.9,6.72c-1.89,1.15,1,28.7,1.67,39.21H478l.54-31.53c9,.22,15.4-2.1,21.94-1.11s12,2.41,16.15-3.17C516.58,300.62,516.74,288.54,512.71,287.32Z"/><path class="cls-22" d="M497.41,336.46l7.3-.45.71-31.11a44,44,0,0,0,8.32-.53l5.9-13.69c-5.17,1-21.71,5.2-23.91,6.54C493.83,298.37,496.74,326,497.41,336.46Z"/><path class="cls-19" d="M505.57,229.14s-5.69-1.57-7.86,2.85-1.19,12.79,1.68,13.57,7-.12,8.18-2.86,2.14-6.66,1.85-9.19S507.08,229.75,505.57,229.14Z"/><path class="cls-19" d="M500.87,244.68s.07,3.36-.3,4.08,7.92.53,7.92.53a16.82,16.82,0,0,1-.57-7.47C508.66,238.42,500.87,244.68,500.87,244.68Z"/><path class="cls-57" d="M508.37,240.55s-.44.9-2.59.76-5-2.74-5.89-3-1-.75-1-.75l-.49.86-.93.14s.63-2.59-.75-3.51.63-8.27,7.62-6.5c0,0,5.35,1,5.42,4S509.41,239,508.37,240.55Z"/><path class="cls-50" d="M500.13,248.67s0-1.37.64-1.5,6.52-.94,7.28-.64l.33,1.81S506.91,249.24,500.13,248.67Z"/><path class="cls-19" d="M498.42,237c.16-1.12,1.44-2.41,2.17-.66s-.49,4.29-1.31,4.15S498.21,238.5,498.42,237Z"/><path class="cls-25" d="M475.42,264.84h0S475.38,264.86,475.42,264.84Z"/><path class="cls-57" d="M507.23,229.94s6.93-.32,1.21,10.51Z"/><polygon class="cls-58" points="522.68 340.15 522.17 341.6 500.36 334.84 501.41 331.9 522.68 340.15"/><rect class="cls-58" x="499.62" y="310.1" width="2.48" height="23.71" transform="translate(1001.71 643.91) rotate(180)"/><rect class="cls-59" x="493.55" y="308.84" width="14.62" height="1.4" transform="translate(1001.71 619.08) rotate(180)"/><polygon class="cls-58" points="478.83 340.15 479.35 341.6 501.15 334.84 500.2 331.72 478.83 340.15"/><polygon class="cls-58" points="494.2 341.44 494.2 343.13 501.15 334.84 500.2 331.72 494.2 341.44"/><circle class="cls-60" cx="478.83" cy="342.17" r="2.04"/><circle class="cls-60" cx="496.06" cy="342.17" r="2.04"/><circle class="cls-60" cx="522.68" cy="342.17" r="2.04"/><rect class="cls-50" x="483.44" y="303.55" width="34.63" height="5.29" rx="2.52" transform="translate(1001.52 612.39) rotate(-180)"/><rect class="cls-51" x="421.93" y="281.32" width="1.98" height="60.85" transform="translate(845.84 623.48) rotate(180)"/><rect class="cls-61" x="437.09" y="232.35" width="51.23" height="36.14" rx="13.18" transform="translate(925.41 500.84) rotate(180)"/><rect class="cls-62" x="439.1" y="234.3" width="47.22" height="28.52" transform="translate(925.41 497.13) rotate(180)"/><circle class="cls-63" cx="462.71" cy="265.11" r="1.65" transform="translate(-3.12 5.53) rotate(-0.68)"/><path class="cls-50" d="M452.1,277.9v-.64s.9-4,7.3-4,6.27,4.64,6.27,4.64Z"/><path class="cls-19" d="M465.74,273.85a6.5,6.5,0,0,1-1.9-.41c-.5-.31-3.55-2.36-4.27-2s-5.47,1.79-5.31,2.48.61.63.95.51a23.93,23.93,0,0,1,4.09-.73s-3.39,1.24-3.41,2.14.71,1.13,1,1.47.71,1.19,1.58,1.26,5.15-1.42,6-1.49a22.64,22.64,0,0,0,2.62-.09A24.62,24.62,0,0,0,465.74,273.85Z"/><path class="cls-25" d="M491,250.57c4.43-.78,9.09-1.9,9.09-1.9l8.25-.33s7.57,1.66,10.56,3c.28.13.28,6.75,1.06,8.49l-2.48,5.22S516.1,275.39,515.8,280c-.14,2.11.38,20.38.38,20.38s-.74.37-6.37,1-19.7-.22-19.79-.89,2.73-24.76,2.85-26c.19-1.92-.55-10.77-.55-10.77-1.06,1.43-3.77,7.86-6.59,10.92-1.65,1.81-9.87,2.91-11.41,3-3.37.11-9.52.78-9.7.46s-.53-5.46-.15-5.59,11.75-.77,14.68-2.32c1.07-.57,4.26-7.54,4.26-7.54S488.59,251.67,491,250.57Z"/><rect class="cls-50" x="502.28" y="266.77" width="23.88" height="33.08" rx="11.37" transform="translate(1028.45 566.61) rotate(180)"/><path class="cls-50" d="M506.51,307.53A11,11,0,0,0,515,304c4.78-5.27,3.92-14.54,3.88-14.93a1.33,1.33,0,1,0-2.64.26c0,.11.77,8.51-3.21,12.89a8.27,8.27,0,0,1-6.52,2.64,1.33,1.33,0,0,0,0,2.66Z"/><rect class="cls-64" x="469.14" y="236.58" width="13.83" height="1.51" rx="0.72" transform="translate(952.1 474.66) rotate(-180)"/><rect class="cls-64" x="469.14" y="239.81" width="13.83" height="1.51" rx="0.72" transform="translate(952.1 481.12) rotate(-180)"/><rect class="cls-64" x="469.14" y="243.52" width="13.83" height="17.04" rx="6.35" transform="translate(952.1 504.07) rotate(-180)"/><rect class="cls-64" x="441.71" y="236.58" width="24.63" height="23.98" rx="10.05" transform="translate(908.05 497.13) rotate(180)"/><polygon class="cls-22" points="173.89 240.73 160.9 247.87 147.86 227.34 163.63 221.86 173.89 240.73"/><polygon class="cls-50" points="173.07 240.11 160.92 246.79 148.72 227.59 163.47 222.47 173.07 240.11"/><path class="cls-19" d="M177.51,236.52s-2.26-1.08-3.25-1.65-3.54-1.34-3.75-1.52-7.57-.64-8-1-.88.91,1,1.33,4.56,1.43,4.7,2.18-2,.92-2.17,1.54.06.47.36.6,2.5-1.08,3.47-.74,2.45-.13,3.19.12l4.35,1.47Z"/><path class="cls-19" d="M160.27,245.29s-1.9-1.71-2.82-2.42-2.64-2.82-2.9-3-3.54-6.88-4.08-7.15.51-1.18,1.64.46,3.14,3.73,3.9,3.58.1-2.2.6-2.64.47-.13.71.1,0,2.78.65,3.56.83,2.36,1.36,3l3.08,3.53Z"/><path class="cls-56" d="M201.17,336.65s.41,2.85.46,3.28,4.57-.25,4.57-.25l.37-3.4S201.73,336.25,201.17,336.65Z"/><path class="cls-22" d="M201.58,339.57a12.29,12.29,0,0,1-2.81,2.46c-1.39.75-3.56,1.05-4.38,1.82-.59.56-2.16,3,3.6,2.92s8.52.34,9.14-.58-.9-6.82-.9-6.82A12.23,12.23,0,0,1,201.58,339.57Z"/><path class="cls-56" d="M168.79,336.65s.41,2.85.46,3.28,4.57-.25,4.57-.25l.37-3.4S169.36,336.25,168.79,336.65Z"/><path class="cls-22" d="M169.21,339.57a12.44,12.44,0,0,1-2.82,2.46c-1.38.75-6.48,1.37-7.3,2.14-.59.56-1.57,2.82,6.52,2.6,5.75-.15,8.52.34,9.14-.58s-.89-6.82-.89-6.82S172.57,339.9,169.21,339.57Z"/><path class="cls-22" d="M197.43,263.38s4.24,6.75,3.93,12.84,1.54,12.76,2.17,19.13c.71,7.1,3.62,23.91,3.73,27.71s-.45,15.93-.45,15.93l-5.83.13s-4.89-29.39-6.16-32.39-7.55-24.38-7.76-26.78S197.43,263.38,197.43,263.38Z"/><path class="cls-22" d="M175.08,264.29s-3.2,16.72-3.63,20.45-.7,18.06-.91,20.39-1.41,30.52-2.53,34h7.44s5.72-20.49,5.72-30.19,4.41-21.08,7.27-27.48,9.37-6.55,11.12-18.42C199.56,263,177.45,260.53,175.08,264.29Z"/><path class="cls-19" d="M190.34,206.67s-5.7-2.13-8.32,2.2-2.38,13,.49,14.1,7.19.51,8.66-2.21,2.8-6.64,2.74-9.26S191.84,207.42,190.34,206.67Z"/><path class="cls-19" d="M183.13,223.16a5,5,0,0,1-.15,2.3c-.39.76,7.38.78,7.38.78a51.09,51.09,0,0,1,1.83-7.61C193.38,215.15,183.13,223.16,183.13,223.16Z"/><path class="cls-57" d="M192.19,218.63s-.54.89-2.73.54-4.86-3.25-5.78-3.57-.92-.86-.92-.86l-.57.84-1,.06s.88-2.61-.45-3.67,1.38-8.44,8.41-6c0,0,5.39,1.49,5.2,4.56S193.4,217.1,192.19,218.63Z"/><path class="cls-50" d="M182.52,225.37s0-1.45.68-1.59,7.24-.77,8.05-.45V225S189.7,226,182.52,225.37Z"/><path class="cls-19" d="M182.91,213.62c.12-.51,1.43-2,1.93-.41s-.76,3.7-1.46,3.51S182.59,214.93,182.91,213.62Z"/><path class="cls-25" d="M156.37,242.48h0S156.32,242.5,156.37,242.48Z"/><path class="cls-9" d="M202.22,279.45a60.53,60.53,0,0,1-9.46,1.69c-6,.65-20.85-.24-20.94-.95s3.2-26.21,3-27.53-.29-6-.29-6a33.12,33.12,0,0,1-2.95,9.38c-.57,1-2.49,4.26-3.41,3.53-4.46-3.57-11.37-17-11.8-17.1.36-.16,3.27-1.5,3.68-1.63s3.57,3.28,5.52,5.4l1.49,1.62c.56-1.27,2.61-9.25,3.25-12,1.44-6.23,1.22-6.49,1.22-6.49,4.36-1.32,11-4,11-4l8.73-.36s8,1.77,11.17,3.19c.3.14.3,7.15,1.12,9l-2.62,5.52s-1.51,10.94-1.82,15.8C199,260.75,202.22,279.45,202.22,279.45Z"/><path class="cls-9" d="M203.9,246.3c-.22.74-1.26,1.36-1.93,1.63a2.54,2.54,0,0,1-1.4.14l-.34-.06h0l-6-1.11s-1.31-15.08,8.18-18.7C202.67,228.29,206,239.55,203.9,246.3Z"/><path class="cls-65" d="M202,247.93h0a2.54,2.54,0,0,1-1.4.14l-.34-.06h0l.59-7.71Z"/><path class="cls-65" d="M167.07,247.87l-.73,3.1a24.26,24.26,0,0,1-.76-4.72Z"/><path class="cls-57" d="M192,207.18s7.46-.94.12,11.54Z"/><polygon class="cls-22" points="153.86 226.24 153.1 224.93 159.08 222.87 159.84 224.17 153.86 226.24"/></g></g></svg>